<?xml version="1.0" standalone="no"?><!DOCTYPE svg PUBLIC "-//W3C//DTD SVG 1.1//EN" "http://www.w3.org/Graphics/SVG/1.1/DTD/svg11.dtd"><svg t="1764841080825" class="icon" viewBox="0 0 1024 1024" version="1.1" xmlns="http://www.w3.org/2000/svg" p-id="6983" xmlns:xlink="http://www.w3.org/1999/xlink" width="64" height="64"><path d="M1.729139 8.664332l1014.774775 0 0 1014.774775-1014.774775 0 0-1014.774775Z" fill="#1296db" p-id="6984" data-spm-anchor-id="a313x.search_index.0.i16.71ce3a81mS8Rd7" class=""></path><path d="M172.797207 638.657132C172.797207 744.185412 257.813453 829.729085 362.691089 829.729085L615.856553 829.729085C685.774977 829.729085 742.447199 772.705278 742.447199 702.353091 742.447199 632.000904 685.774977 574.977096 615.856553 574.977096 590.535259 574.977096 567.065584 582.636536 547.283323 595.534967 527.785927 510.867113 452.755767 447.601101 362.691089 447.601101 257.813453 447.601101 172.797207 533.144775 172.797207 638.657132L172.797207 638.657132Z" fill="#FFFFFF" p-id="6985"></path><path d="M858.539278 524.678666 795.251868 524.678666C777.764349 524.678666 763.60025 510.426695 763.60025 492.84661 763.60025 475.250601 777.764349 460.998631 795.251868 460.998631L858.539278 460.998631C876.010971 460.998631 890.190896 475.250601 890.190896 492.84661 890.190896 510.426695 876.010971 524.678666 858.539278 524.678666L858.539278 524.678666Z" fill="#ffffff" p-id="6986" data-spm-anchor-id="a313x.search_index.0.i21.71ce3a81mS8Rd7" class="selected"></path><path d="M761.871573 377.27509C749.511616 389.711726 729.476142 389.711726 717.116185 377.27509 704.756229 364.838454 704.756229 344.678683 717.116185 332.242047L761.871573 287.209004C774.23153 274.772368 794.267004 274.772368 806.626961 287.209004 818.986918 299.64564 818.986918 319.80541 806.626961 332.242047L761.871573 377.27509 761.871573 377.27509Z" fill="#ffffff" p-id="6987" data-spm-anchor-id="a313x.search_index.0.i20.71ce3a81mS8Rd7" class="selected"></path><path d="M593.445987 339.556175C575.958468 339.556175 561.794369 325.304204 561.794369 307.724119L561.794369 244.02816C561.794369 226.448075 575.958468 212.18018 593.445987 212.18018 610.91768 212.18018 625.081779 226.448075 625.081779 244.02816L625.081779 307.724119C625.081779 325.304204 610.91768 339.556175 593.445987 339.556175L593.445987 339.556175Z" fill="#ffffff" p-id="6988" data-spm-anchor-id="a313x.search_index.0.i19.71ce3a81mS8Rd7" class="selected"></path><path d="M415.779349 377.27509 371.023961 332.242047C358.664005 319.80541 358.664005 299.64564 371.023961 287.209004 383.383918 274.772368 403.419392 274.772368 415.779349 287.209004L460.534737 332.242047C472.894694 344.678683 472.894694 364.838454 460.534737 377.27509 448.190606 389.711726 428.139306 389.711726 415.779349 377.27509L415.779349 377.27509Z" fill="#ffffff" p-id="6989" data-spm-anchor-id="a313x.search_index.0.i18.71ce3a81mS8Rd7" class="selected"></path><path d="M579.791649 365.729657C536.377331 365.729657 497.10238 383.475525 468.695723 412.137371 514.601509 440.463644 552.777859 480.278344 579.124642 527.673036 592.150899 525.442466 605.353717 523.646165 619.007745 523.646165 660.715311 523.646165 699.8137 534.641102 733.772211 553.788479 735.655525 544.017395 736.714889 533.950218 736.714889 523.646165 736.714889 436.436773 666.443724 365.729657 579.791649 365.729657L579.791649 365.729657Z" fill="#ffffff" p-id="6990" data-spm-anchor-id="a313x.search_index.0.i17.71ce3a81mS8Rd7" class="selected"></path></svg>