<svg t="1761267264133" class="icon" viewBox="0 0 1024 1024" version="1.1" xmlns="http://www.w3.org/2000/svg" p-id="6052" width="64" height="64"><path d="M879.2 140.8a32 32 0 0 0-26.5-23.6 966.4 966.4 0 0 0-294.7 6.3C419.4 148.9 310 204.6 231.7 289.1 82 451.5 163.5 704.5 184.1 760a557.9 557.9 0 0 0-21.1 122.1 31.9 31.9 0 0 0 30.9 33h1.1a32 32 0 0 0 31.9-30.8c0-3.1 14.4-306.7 306.7-486A32 32 0 1 0 500 343.8a702.5 702.5 0 0 0-278.6 313.6c-20-90.6-30-230 57.3-324.9 142.2-154.2 380.5-163.9 498.4-157.9-48.7 63.3-57.1 135.9-64.8 206.5-10.6 93.6-20 182.1-115.3 267.1C483.2 750 320.9 732.3 319.3 732.1a32 32 0 0 0-7.8 63.5 340.9 340.9 0 0 0 40 2c63.7 0 188.5-12.7 288.5-101.8C752.6 594.6 765 485 775.9 388.3c10-84.4 17.7-157.2 91.8-214a31.8 31.8 0 0 0 11.5-33.5z" fill="#1296db" p-id="6053"></path></svg>